<svg xmlns="http://www.w3.org/2000/svg" viewBox="0 0 48 48"><style>@media (prefers-color-scheme:dark){path{fill:#000}}</style><path d="M31.4 17.3c-6-9-13-5.6-18.2-10-5.5-4.7-10.2 3-5.2 6 3.3 2.1 9.6-1.7 16.4.7-10.5-2-13 5.3-19.8 5.8-7.3.6-5 9.5.7 8 3.6-1 5.4-8 12-11.2-9 6-5.6 13-10 18.2-4.7 5.5 3 10.2 6 5.2 2.1-3.3-1.7-9.6.7-16.5-2.1 10.6 5.3 13.1 5.8 20 .6 7.2 9.5 5 8-.8-1-3.6-8-5.4-11.2-12 6 9 13 5.6 18.2 10 5.5 4.7 10.2-3 5.2-6.1-3.3-2-9.6 1.8-16.4-.6 10.5 2 13-5.3 19.8-5.8 7.3-.6 5-9.5-.7-8-3.6 1-5.4 8-12 11.2 9-6 5.6-13 10-18.2 4.7-5.5-3-10.2-6.1-5.2-2 3.3 1.8 9.6-.6 16.5 2.1-10.6-5.3-13.1-5.8-20-.6-7.2-9.5-5-8 .8 1 3.6 8 5.4 11.2 12Z" style="fill:#fff"/></svg>