<svg xmlns="http://www.w3.org/2000/svg" width="154" height="34" fill="none"><path fill="#fff" d="M154 27.4c0 8.3-14.8 7.4-15.2 1.3l4.7-.2c.3 1.8 5.5 2.8 5.6-1.2v-2.7h-.1c-2.3 4.4-10.4 3-10.6-4.8-.2-8.6 8.1-10.3 10.5-5.2h.2V12h4.9v15.4Zm-7.7-3.9c3.7 0 4-8 0-8s-3.8 8 0 8Zm-18.2-4.9v8.7h-5V12h4.8v2.8h.1c2-4.8 10.1-4 10.1 2.7v9.8h-4.9v-8.8c0-3.6-5-3.6-5 0Zm-10.7 8.7V12h5v15.3h-5Zm2.5-17.1a2.3 2.3 0 0 1 0-4.7c3.3 0 3.3 4.7 0 4.7ZM82.3 27.3l-4-15.3h5l2 9.8h.2l2.2-9.8h4.8l2.3 9.7h.2l2-9.7h5l-4.1 15.3h-5.3l-2.4-9H90l-2.4 9h-5.3Z"/><path fill="#fff" d="M74 25.2c-2.1 3.8-9.8 3-9.7-2.1.2-7 9.5-3.6 9.5-6.2 0-2.4-4-2.2-4.4-.1l-4.5-.2c.7-6.9 14-6.2 13.8.3v10.4H74v-2.1Zm-.2-4.8c-1.4.7-4.8.2-4.8 2.4 0 2.5 4.8 2 4.8-.8v-1.6Zm-19.6 6.9h-7.6V6.8h7.6c9.7 0 10.2 8.1 10.2 10.3 0 2.1-.5 10.2-10.2 10.2Zm-2.6-4.2H54c3.6 0 5.4-1.8 5.4-6s-1.8-6-5.5-6h-2.3v12ZM22.4 12.2c-4.2-6.3-9.2-3.9-13-7-4-3.4-7.3 2.2-3.7 4.3 2.4 1.4 6.9-1.3 11.8.4C9.9 8.4 8 13.6 3.3 14c-5.2.5-3.6 6.7.5 5.7 2.6-.7 3.8-5.7 8.5-8-6.4 4.3-4 9.3-7 13-3.4 3.9 2.2 7.2 4.3 3.6 1.4-2.3-1.3-6.8.4-11.6-1.5 7.4 3.8 9.2 4.2 14 .4 5.2 6.7 3.6 5.7-.4-.7-2.6-5.8-3.9-8-8.5 4.2 6.3 9.3 3.9 13 7 4 3.4 7.3-2.2 3.7-4.3-2.4-1.4-6.9 1.3-11.8-.4 7.6 1.5 9.4-3.7 14.2-4.1 5.2-.5 3.7-6.7-.4-5.7-2.7.7-4 5.7-8.6 8 6.4-4.3 4-9.3 7-13 3.5-3.9-2.1-7.2-4.3-3.6-1.4 2.3 1.4 6.8-.4 11.6 1.5-7.4-3.8-9.2-4.2-14-.4-5.2-6.7-3.6-5.7.4.7 2.6 5.8 3.9 8 8.5Zm84.2 6.4v8.7h-5V12h4.7v2.8h.2c2-4.8 10.1-4 10.1 2.7v9.8h-5v-8.8c0-3.6-5-3.6-5 0Z"/></svg>